<svg width="43" height="43" viewBox="0 0 43 43" fill="none" xmlns="http://www.w3.org/2000/svg">
<path d="M27.7546 25.1379L22.8853 31.151C22.5375 31.5805 22.1045 31.8225 21.5863 31.877C21.0681 31.9315 20.5942 31.7848 20.1647 31.437L1.9106 16.6551C1.48109 16.3073 1.2408 15.8905 1.18974 15.4046C1.13868 14.9188 1.28705 14.4611 1.63486 14.0316L6.50419 8.01852C6.852 7.58901 7.3012 7.34532 7.8518 7.28745C8.4024 7.22958 8.89246 7.37455 9.32197 7.72236L27.4687 22.4173C27.8982 22.7651 28.1402 23.1981 28.1946 23.7163C28.2491 24.2345 28.1024 24.7084 27.7546 25.1379ZM21.0961 27.2131L23.5307 24.2065L8.2832 11.8593L5.84854 14.8659L21.0961 27.2131ZM36.3436 39.5603L27.2166 32.1694L29.6512 29.1628L38.7783 36.5537L36.3436 39.5603ZM33.4941 14.3179C31.6156 14.5154 29.9426 14.0199 28.4751 12.8316C27.0076 11.6432 26.1751 10.1098 25.9777 8.23126C25.7802 6.35274 26.2757 4.67974 27.464 3.21225C28.6524 1.74477 30.1858 0.912305 32.0643 0.714866C33.9429 0.517427 35.6159 1.01288 37.0833 2.20123C38.5508 3.38958 39.3833 4.92301 39.5807 6.80153C39.7782 8.68004 39.2827 10.353 38.0944 11.8205C36.906 13.288 35.3726 14.1205 33.4941 14.3179ZM33.0856 10.4313C33.8953 10.3462 34.5537 9.99049 35.061 9.36413C35.5682 8.73776 35.7792 8.01973 35.6941 7.21002C35.609 6.40032 35.2533 5.74185 34.6269 5.23463C34.0006 4.72741 33.2825 4.51635 32.4728 4.60145C31.6631 4.68656 31.0047 5.04229 30.4974 5.66866C29.9902 6.29502 29.7792 7.01306 29.8643 7.82276C29.9494 8.63247 30.3051 9.29093 30.9315 9.79815C31.5578 10.3054 32.2759 10.5164 33.0856 10.4313Z" fill="white"/>
<path d="M27.7546 25.1379L22.8853 31.151C22.5375 31.5805 22.1045 31.8225 21.5863 31.877C21.0681 31.9315 20.5942 31.7848 20.1647 31.437L1.9106 16.6551C1.48109 16.3073 1.2408 15.8905 1.18974 15.4046C1.13868 14.9188 1.28705 14.4611 1.63486 14.0316L6.50419 8.01852C6.852 7.58901 7.3012 7.34532 7.8518 7.28745C8.4024 7.22958 8.89246 7.37455 9.32197 7.72236L27.4687 22.4173C27.8982 22.7651 28.1402 23.1981 28.1946 23.7163C28.2491 24.2345 28.1024 24.7084 27.7546 25.1379ZM21.0961 27.2131L23.5307 24.2065L8.2832 11.8593L5.84854 14.8659L21.0961 27.2131ZM36.3436 39.5603L27.2166 32.1694L29.6512 29.1628L38.7783 36.5537L36.3436 39.5603ZM33.4941 14.3179C31.6156 14.5154 29.9426 14.0199 28.4751 12.8316C27.0076 11.6432 26.1751 10.1098 25.9777 8.23126C25.7802 6.35274 26.2757 4.67974 27.464 3.21225C28.6524 1.74477 30.1858 0.912305 32.0643 0.714866C33.9429 0.517427 35.6159 1.01288 37.0833 2.20123C38.5508 3.38958 39.3833 4.92301 39.5807 6.80153C39.7782 8.68004 39.2827 10.353 38.0944 11.8205C36.906 13.288 35.3726 14.1205 33.4941 14.3179ZM33.0856 10.4313C33.8953 10.3462 34.5537 9.99049 35.061 9.36413C35.5682 8.73776 35.7792 8.01973 35.6941 7.21002C35.609 6.40032 35.2533 5.74185 34.6269 5.23463C34.0006 4.72741 33.2825 4.51635 32.4728 4.60145C31.6631 4.68656 31.0047 5.04229 30.4974 5.66866C29.9902 6.29502 29.7792 7.01306 29.8643 7.82276C29.9494 8.63247 30.3051 9.29093 30.9315 9.79815C31.5578 10.3054 32.2759 10.5164 33.0856 10.4313Z" fill="url(#paint0_linear_197_29110)"/>
<defs>
<linearGradient id="paint0_linear_197_29110" x1="0" y1="4.08495" x2="42.9508" y2="38.8659" gradientUnits="userSpaceOnUse">
<stop stop-color="#6A55F3"/>
<stop offset="1" stop-color="#834EEE"/>
</linearGradient>
</defs>
</svg>
