<svg width="149" height="149" viewBox="0 0 149 149" fill="none" xmlns="http://www.w3.org/2000/svg">
<rect x="30.4165" y="38.7788" width="80" height="80" rx="16" transform="rotate(-5.99997 30.4165 38.7788)" fill="url(#paint0_linear_149_8437)"/>
<g filter="url(#filter0_d_149_8437)">
<rect x="30.4165" y="38.7788" width="80" height="80" rx="16" transform="rotate(-5.99997 30.4165 38.7788)" fill="white" fill-opacity="0.01" shape-rendering="crispEdges"/>
</g>
<path d="M80.8055 78.1272L75.8215 84.2819C75.4656 84.7215 75.0223 84.9692 74.4919 85.025C73.9615 85.0807 73.4765 84.9306 73.0369 84.5746L54.353 69.4447C53.9134 69.0887 53.6675 68.6621 53.6152 68.1648C53.5629 67.6675 53.7148 67.1991 54.0708 66.7595L59.0548 60.6048C59.4108 60.1652 59.8706 59.9157 60.4341 59.8565C60.9977 59.7973 61.4993 59.9457 61.9389 60.3017L80.5128 75.3426C80.9525 75.6986 81.2001 76.1418 81.2559 76.6722C81.3116 77.2026 81.1615 77.6876 80.8055 78.1272ZM73.9902 80.2512L76.4822 77.1739L60.8757 64.536L58.3837 67.6133L73.9902 80.2512ZM89.5967 92.8892L80.2548 85.3242L82.7468 82.2469L92.0887 89.8118L89.5967 92.8892ZM86.6801 67.0525C84.7573 67.2546 83.0449 66.7475 81.5429 65.5311C80.0409 64.3148 79.1888 62.7453 78.9867 60.8225C78.7846 58.8998 79.2918 57.1874 80.5081 55.6854C81.7244 54.1833 83.2939 53.3313 85.2167 53.1292C87.1394 52.9271 88.8518 53.4342 90.3539 54.6505C91.8559 55.8669 92.7079 57.4364 92.91 59.3591C93.1121 61.2819 92.605 62.9943 91.3887 64.4963C90.1724 65.9983 88.6028 66.8504 86.6801 67.0525ZM86.262 63.0744C87.0907 62.9873 87.7647 62.6232 88.2839 61.9821C88.803 61.341 89.0191 60.606 88.9319 59.7773C88.8448 58.9485 88.4807 58.2745 87.8396 57.7554C87.1985 57.2362 86.4636 57.0202 85.6348 57.1073C84.806 57.1944 84.1321 57.5585 83.6129 58.1996C83.0937 58.8407 82.8777 59.5757 82.9648 60.4044C83.0519 61.2332 83.416 61.9072 84.0571 62.4263C84.6983 62.9455 85.4332 63.1615 86.262 63.0744Z" fill="white"/>
<defs>
<filter id="filter0_d_149_8437" x="0" y="0" width="148.757" height="148.757" filterUnits="userSpaceOnUse" color-interpolation-filters="sRGB">
<feFlood flood-opacity="0" result="BackgroundImageFix"/>
<feColorMatrix in="SourceAlpha" type="matrix" values="0 0 0 0 0 0 0 0 0 0 0 0 0 0 0 0 0 0 127 0" result="hardAlpha"/>
<feMorphology radius="8" operator="erode" in="SourceAlpha" result="effect1_dropShadow_149_8437"/>
<feOffset/>
<feGaussianBlur stdDeviation="20"/>
<feComposite in2="hardAlpha" operator="out"/>
<feColorMatrix type="matrix" values="0 0 0 0 0.745098 0 0 0 0 0.960784 0 0 0 0 0 0 0 0 0.3 0"/>
<feBlend mode="normal" in2="BackgroundImageFix" result="effect1_dropShadow_149_8437"/>
<feBlend mode="normal" in="SourceGraphic" in2="effect1_dropShadow_149_8437" result="shape"/>
</filter>
<linearGradient id="paint0_linear_149_8437" x1="30.4165" y1="38.7788" x2="110.416" y2="118.779" gradientUnits="userSpaceOnUse">
<stop stop-color="#6A55F3"/>
<stop offset="1" stop-color="#834EEE"/>
</linearGradient>
</defs>
</svg>
